<svg xmlns="http://www.w3.org/2000/svg" viewBox="0 0 24 24" fill="none" stroke="none">
  <circle cx="12" cy="12" r="10" fill="#25D366"/>
  <path d="M16.5 7.5a4.762 4.762 0 0 0-3.5-1.5c-2.6 0-4.75 2.1-4.75 4.7 0 .85.22 1.65.6 2.34L8 16.2l1.85-.5c.6.33 1.26.5 1.95.5 2.57 0 4.65-2.1 4.65-4.7 0-1.26-.47-2.45-1.35-3.35Zm-3.33 6.34-.18.01c-.61 0-1.2-.17-1.72-.5l-.44-.25-1.1.28.3-1.12-.29-.44a2.697 2.697 0 0 1-.5-1.73c0-1.6 1.3-2.9 2.9-2.9.84 0 1.65.33 2.25.93.6.6.93 1.42.93 2.28 0 1.6-1.3 2.9-2.9 2.9Z" fill="#fff"/>
</svg>
